Input #0, mov,mp4,m4a,3gp,3g2,mj2, from '/home/hbattu/projects/huberman-gpt/huberman-audio/mp3/tmp3ilqnnwh.mp4':
  Metadata:
    major_brand     : dash
    minor_version   : 0
    compatible_brands: iso6mp41
    creation_time   : 2021-11-08T19:22:30.000000Z
  Duration: 01:30:05.40, start: 0.000000, bitrate: 129 kb/s
    Stream #0:0(und): Audio: aac (LC) (mp4a / 0x6134706D), 44100 Hz, stereo, fltp, 0 kb/s (default)
    Metadata:
      creation_time   : 2021-11-08T19:22:30.000000Z
      handler_name    : ISO Media file produced by Google Inc.
Stream mapping:
  Stream #0:0 -> #0:0 (aac (native) -> mp3 (libmp3lame))
Press [q] to stop, [?] for help
[graph_0_in_0_0 @ 0x557a0cb14b40] tb:1/44100 samplefmt:fltp samplerate:44100 chlayout:0x3
Output #0, mp3, to '../huberman-audio/mp3/iMvtHqLmEkI.mp3':
  Metadata:
    major_brand     : dash
    minor_version   : 0
    compatible_brands: iso6mp41
    TSSE            : Lavf58.29.100
    Stream #0:0(und): Audio: mp3 (libmp3lame), 44100 Hz, stereo, fltp, delay 1105 (default)
    Metadata:
      creation_time   : 2021-11-08T19:22:30.000000Z
      handler_name    : ISO Media file produced by Google Inc.
      encoder         : Lavc58.54.100 libmp3lame
No more output streams to write to, finishing.
size=   84460kB time=01:30:05.41 bitrate= 128.0kbits/s speed=80.3x    
[AVIOContext @ 0x557a0ca09900] Statistics: 0 seeks, 135 writeouts
video:0kB audio:84460kB subtitle:0kB other streams:0kB global headers:0kB muxing overhead: 0.000400%
Input file #0 (/home/hbattu/projects/huberman-gpt/huberman-audio/mp3/tmp3ilqnnwh.mp4):
  Input stream #0:0 (audio): 232791 packets read (86486343 bytes); 232791 frames decoded (238377984 samples); 
  Total: 232791 packets (86486343 bytes) demuxed
Output file #0 (../huberman-audio/mp3/iMvtHqLmEkI.mp3):
  Output stream #0:0 (audio): 206926 frames encoded (238377984 samples); 206927 packets muxed (86487040 bytes); 
  Total: 206927 packets (86487040 bytes) muxed
[AVIOContext @ 0x557a0ca2d240] Statistics: 2 seeks, 331 writeouts
[AVIOContext @ 0x557a0ca12880] Statistics: 87481043 bytes read, 0 seeks
